<?xml version="1.0" encoding="utf-8"?>
<!DOCTYPE svg PUBLIC "-//W3C//DTD SVG 1.1//EN" "http://www.w3.org/Graphics/SVG/1.1/DTD/svg11.dtd">
<svg version="1.1" id="Layer_1" xmlns="http://www.w3.org/2000/svg" xmlns:xlink="http://www.w3.org/1999/xlink" x="0px" y="0px"
	 width="18px" height="18px" viewBox="0 0 18 18" enable-background="new 0 0 18 18" xml:space="preserve">
<path fill="#989898" d="M6.762,2.25c2.467,0,4.474,2.019,4.474,4.5c0,0.935-0.287,1.834-0.829,2.601L9.966,9.974l-0.618,0.442
	c-0.763,0.546-1.657,0.834-2.586,0.834c-2.467,0-4.474-2.018-4.474-4.5S4.295,2.25,6.762,2.25 M6.762,0L6.762,0
	C3.056,0,0.051,3.022,0.051,6.75s3.005,6.75,6.711,6.75c1.449,0,2.786-0.466,3.882-1.25l5.391,5.42
	c0.219,0.221,0.506,0.33,0.793,0.33c0.286,0,0.572-0.109,0.791-0.33c0.438-0.439,0.438-1.153,0-1.594l-5.39-5.42
	c0.78-1.104,1.243-2.449,1.243-3.906C13.473,3.022,10.469,0,6.762,0"/>
</svg>
